<mxfile host="" modified="2020-12-02T22:17:08.279Z" agent="5.0 (Macintosh; Intel Mac OS X 10_15_7) AppleWebKit/537.36 (KHTML, like Gecko) Code/1.44.0 Chrome/78.0.3904.130 Electron/7.1.11 Safari/537.36" etag="4StWOOxXosVAMT7VsN6c" version="13.1.3">
    <diagram id="xMgeZq_AuP-jBk0xDeKk" name="Page-1">
        <mxGraphModel dx="355" dy="241" grid="1" gridSize="10" guides="1" tooltips="1" connect="1" arrows="1" fold="1" page="1" pageScale="1" pageWidth="827" pageHeight="1169" math="0" shadow="0">
            <root>
                <mxCell id="0"/>
                <mxCell id="1" parent="0"/>
                <mxCell id="fyR5RbJ0nXnPsh6vntGL-13" value="Unfiltered" style="text;html=1;strokeColor=none;fillColor=none;align=center;verticalAlign=middle;whiteSpace=wrap;rounded=0;fontStyle=1" parent="1" vertex="1">
                    <mxGeometry y="20.480000000000004" width="70" height="20" as="geometry"/>
                </mxCell>
                <mxCell id="fyR5RbJ0nXnPsh6vntGL-14" value="Filtered" style="text;html=1;strokeColor=none;fillColor=none;align=center;verticalAlign=middle;whiteSpace=wrap;rounded=0;fontStyle=1" parent="1" vertex="1">
                    <mxGeometry y="137.48000000000002" width="70" height="20" as="geometry"/>
                </mxCell>
                <mxCell id="fyR5RbJ0nXnPsh6vntGL-15" value="Attacker" style="rounded=0;whiteSpace=wrap;html=1;fillColor=#f8cecc;strokeColor=#b85450;" parent="1" vertex="1">
                    <mxGeometry x="70" y="10.000000000000014" width="60" height="50" as="geometry"/>
                </mxCell>
                <mxCell id="fyR5RbJ0nXnPsh6vntGL-16" value="Target" style="rounded=0;whiteSpace=wrap;html=1;fillColor=#dae8fc;strokeColor=#6c8ebf;" parent="1" vertex="1">
                    <mxGeometry x="260" y="10.000000000000014" width="60" height="50" as="geometry"/>
                </mxCell>
                <mxCell id="fyR5RbJ0nXnPsh6vntGL-17" value="ACK" style="endArrow=classic;html=1;exitX=1;exitY=0;exitDx=0;exitDy=0;entryX=0;entryY=0;entryDx=0;entryDy=0;fillColor=#d5e8d4;strokeColor=#82b366;" parent="1" source="fyR5RbJ0nXnPsh6vntGL-15" target="fyR5RbJ0nXnPsh6vntGL-16" edge="1">
                    <mxGeometry width="50" height="50" relative="1" as="geometry">
                        <mxPoint x="140" y="40.000000000000014" as="sourcePoint"/>
                        <mxPoint x="190" y="-9.999999999999986" as="targetPoint"/>
                    </mxGeometry>
                </mxCell>
                <mxCell id="fyR5RbJ0nXnPsh6vntGL-19" value="RST" style="endArrow=classic;html=1;entryX=1;entryY=1;entryDx=0;entryDy=0;fillColor=#f8cecc;strokeColor=#b85450;exitX=0;exitY=1;exitDx=0;exitDy=0;" parent="1" source="fyR5RbJ0nXnPsh6vntGL-16" target="fyR5RbJ0nXnPsh6vntGL-15" edge="1">
                    <mxGeometry width="50" height="50" relative="1" as="geometry">
                        <mxPoint x="131" y="90.00000000000001" as="sourcePoint"/>
                        <mxPoint x="200" y="50.000000000000014" as="targetPoint"/>
                    </mxGeometry>
                </mxCell>
                <mxCell id="fyR5RbJ0nXnPsh6vntGL-20" value="Attacker" style="rounded=0;whiteSpace=wrap;html=1;fillColor=#f8cecc;strokeColor=#b85450;" parent="1" vertex="1">
                    <mxGeometry x="70" y="87.48" width="60" height="50" as="geometry"/>
                </mxCell>
                <mxCell id="fyR5RbJ0nXnPsh6vntGL-21" value="Target" style="rounded=0;whiteSpace=wrap;html=1;fillColor=#dae8fc;strokeColor=#6c8ebf;" parent="1" vertex="1">
                    <mxGeometry x="260" y="87.48" width="60" height="50" as="geometry"/>
                </mxCell>
                <mxCell id="fyR5RbJ0nXnPsh6vntGL-22" value="ACK" style="endArrow=classic;html=1;exitX=1;exitY=0;exitDx=0;exitDy=0;entryX=0;entryY=0;entryDx=0;entryDy=0;fillColor=#d5e8d4;strokeColor=#82b366;" parent="1" source="fyR5RbJ0nXnPsh6vntGL-20" target="fyR5RbJ0nXnPsh6vntGL-21" edge="1">
                    <mxGeometry width="50" height="50" relative="1" as="geometry">
                        <mxPoint x="140" y="117.48" as="sourcePoint"/>
                        <mxPoint x="190" y="67.48" as="targetPoint"/>
                    </mxGeometry>
                </mxCell>
                <mxCell id="fyR5RbJ0nXnPsh6vntGL-26" value="" style="endArrow=none;dashed=1;html=1;" parent="1" edge="1">
                    <mxGeometry width="50" height="50" relative="1" as="geometry">
                        <mxPoint y="71.48" as="sourcePoint"/>
                        <mxPoint x="350" y="71.48" as="targetPoint"/>
                    </mxGeometry>
                </mxCell>
                <mxCell id="oCC51KfEoa3r5FL2rGot-1" value="Attacker" style="rounded=0;whiteSpace=wrap;html=1;fillColor=#f8cecc;strokeColor=#b85450;" parent="1" vertex="1">
                    <mxGeometry x="70" y="157.48000000000002" width="60" height="50" as="geometry"/>
                </mxCell>
                <mxCell id="oCC51KfEoa3r5FL2rGot-2" value="Target" style="rounded=0;whiteSpace=wrap;html=1;fillColor=#dae8fc;strokeColor=#6c8ebf;" parent="1" vertex="1">
                    <mxGeometry x="260" y="157.48000000000002" width="60" height="50" as="geometry"/>
                </mxCell>
                <mxCell id="oCC51KfEoa3r5FL2rGot-3" value="SYN + Port" style="endArrow=classic;html=1;exitX=1;exitY=0;exitDx=0;exitDy=0;entryX=0;entryY=0;entryDx=0;entryDy=0;fillColor=#d5e8d4;strokeColor=#82b366;" parent="1" source="oCC51KfEoa3r5FL2rGot-1" target="oCC51KfEoa3r5FL2rGot-2" edge="1">
                    <mxGeometry width="50" height="50" relative="1" as="geometry">
                        <mxPoint x="140" y="187.48000000000002" as="sourcePoint"/>
                        <mxPoint x="190" y="137.48000000000002" as="targetPoint"/>
                    </mxGeometry>
                </mxCell>
                <mxCell id="oCC51KfEoa3r5FL2rGot-5" value="ICMP unreachable&lt;br&gt;error" style="endArrow=classic;html=1;entryX=1;entryY=1;entryDx=0;entryDy=0;fillColor=#f8cecc;strokeColor=#b85450;exitX=0;exitY=1;exitDx=0;exitDy=0;" parent="1" source="oCC51KfEoa3r5FL2rGot-2" target="oCC51KfEoa3r5FL2rGot-1" edge="1">
                    <mxGeometry width="50" height="50" relative="1" as="geometry">
                        <mxPoint x="160" y="190" as="sourcePoint"/>
                        <mxPoint x="200" y="197.48000000000002" as="targetPoint"/>
                    </mxGeometry>
                </mxCell>
                <mxCell id="oCC51KfEoa3r5FL2rGot-7" value="No response" style="text;html=1;strokeColor=none;fillColor=none;align=center;verticalAlign=middle;whiteSpace=wrap;rounded=0;fontStyle=2" parent="1" vertex="1">
                    <mxGeometry x="180" y="117.48" width="80" height="20" as="geometry"/>
                </mxCell>
            </root>
        </mxGraphModel>
    </diagram>
</mxfile>